<svg xmlns="http://www.w3.org/2000/svg" width="512" height="512" viewBox="0 0 512 512">
  <defs>
    <clipPath id="card">
      <rect x="64" y="64" width="384" height="384" rx="96" ry="96"/>
    </clipPath>
  </defs>
  <g clip-path="url(#card)">
    <rect x="64" y="64" width="192" height="384" fill="#89A68B"/>
    <rect x="256" y="64" width="192" height="384" fill="#D7DBE0"/>
  </g>
  <g fill="none" stroke="#ffffff" stroke-width="20" stroke-linecap="round" stroke-linejoin="round">
    <rect x="112" y="188" width="176" height="132" rx="14"/>
    <line x1="112" y1="216" x2="288" y2="216"/>
    <path d="M250 274a46 46 0 1 1-40 40"/>
    <path d="M206 314l4 28 24-14"/>
  </g>
  <g fill="none" stroke="#ffffff" stroke-width="20" stroke-linecap="round" stroke-linejoin="round">
    <rect x="304" y="188" width="128" height="168" rx="16"/>
    <rect x="340" y="168" width="56" height="28" rx="10"/>
    <line x1="328" y1="248" x2="408" y2="248"/>
    <line x1="328" y1="284" x2="392" y2="284"/>
    <line x1="328" y1="320" x2="380" y2="320"/>
    <path d="M356 300l24 24 44-44"/>
  </g>
</svg>

