<svg xmlns="http://www.w3.org/2000/svg" viewBox="0 0 1400 560">
  <!-- Background -->
  <rect width="1400" height="560" fill="#171717"/>

  <!-- Left side - Icon and text -->
  <g transform="translate(100, 180)">
    <!-- App Icon -->
    <rect width="200" height="200" rx="32" fill="#262626"/>
    <path d="M31.2 146.8V53.2h28.2l21.8 43.8 21.8-43.8h28.2v93.6h-28.2V90.6l-21.8 43.8-21.8-43.8v55.6H31.2z" fill="#fafafa"/>
    <path d="M168.8 146.8V109.4l-18.8 21.8-18.8-21.8v37.4H112.4V53.2h18.8l25 31.2 25-31.2h18.8v93.6h-31.2z" fill="#a3a3a3"/>
  </g>

  <!-- Title and description -->
  <text x="380" y="260" font-family="system-ui, -apple-system, sans-serif" font-size="56" font-weight="700" fill="#fafafa">Markdown Preview</text>
  <text x="380" y="320" font-family="system-ui, -apple-system, sans-serif" font-size="24" fill="#a3a3a3">Beautiful. Customizable. Fast.</text>

  <!-- Feature highlights -->
  <g transform="translate(380, 360)">
    <rect x="0" y="0" width="200" height="40" rx="8" fill="#262626"/>
    <text x="100" y="26" font-family="system-ui, -apple-system, sans-serif" font-size="14" fill="#fafafa" text-anchor="middle">Multiple Themes</text>

    <rect x="220" y="0" width="200" height="40" rx="8" fill="#262626"/>
    <text x="320" y="26" font-family="system-ui, -apple-system, sans-serif" font-size="14" fill="#fafafa" text-anchor="middle">Custom Fonts</text>

    <rect x="440" y="0" width="200" height="40" rx="8" fill="#262626"/>
    <text x="540" y="26" font-family="system-ui, -apple-system, sans-serif" font-size="14" fill="#fafafa" text-anchor="middle">Table of Contents</text>
  </g>

  <!-- Right side - Preview mockup -->
  <g transform="translate(950, 80)">
    <rect width="350" height="400" rx="8" fill="#262626" stroke="#404040" stroke-width="1"/>
    <!-- Toolbar -->
    <rect y="0" width="350" height="40" rx="8" fill="#1a1a1a"/>
    <circle cx="20" cy="20" r="6" fill="#525252"/>
    <circle cx="40" cy="20" r="6" fill="#525252"/>
    <circle cx="60" cy="20" r="6" fill="#525252"/>
    <!-- Content lines -->
    <rect x="20" y="60" width="200" height="16" rx="4" fill="#fafafa"/>
    <rect x="20" y="90" width="310" height="8" rx="2" fill="#525252"/>
    <rect x="20" y="110" width="280" height="8" rx="2" fill="#525252"/>
    <rect x="20" y="130" width="300" height="8" rx="2" fill="#525252"/>
    <rect x="20" y="160" width="160" height="14" rx="4" fill="#a3a3a3"/>
    <rect x="20" y="190" width="310" height="8" rx="2" fill="#525252"/>
    <rect x="20" y="210" width="290" height="8" rx="2" fill="#525252"/>
    <rect x="20" y="240" width="140" height="14" rx="4" fill="#a3a3a3"/>
    <rect x="20" y="270" width="310" height="8" rx="2" fill="#525252"/>
    <rect x="20" y="290" width="260" height="8" rx="2" fill="#525252"/>
    <rect x="20" y="310" width="300" height="8" rx="2" fill="#525252"/>
  </g>
</svg>
